<svg xmlns="http://www.w3.org/2000/svg" viewBox="0 0 180 80" fill="#1d283a">
  <style>@media (prefers-color-scheme: dark) { svg { fill: #f8fafc } }</style>
  <linearGradient y1="1" x2="1" id="l">
    <stop offset="0%" stop-color="#08A771" />
    <stop offset="100%" stop-color="#11E49D" />
  </linearGradient>
  <linearGradient y1="1" x2="1" id="r">
    <stop offset="0%" stop-color="#13AAAA" />
    <stop offset="100%" stop-color="#04D0D0" />
  </linearGradient>
  <path d="M30.53 27.306l5.11 13.84-11.88 18.52L4 4.306c11.3 0 20.08 6.25 26.53 23z" fill="url(#l)" />
  <path d="M81.72 5.126q-11.33-3.57-19.85 4.18L36 33.666q-16 15.12-21.76-.67l9.52 26.67 57.96-54.54z" fill="url(#r)" />
  <path d="M74.388 59.66c7.138 0 12.187-3.515 13.636-8.842l-6.03-1.086c-1.15 3.089-3.92 4.666-7.542 4.666-5.455 0-9.12-3.537-9.29-9.844h23.267v-2.259c0-11.825-7.074-16.448-14.489-16.448-9.119 0-15.127 6.946-15.127 17.002 0 10.164 5.923 16.811 15.575 16.811zm-9.205-19.879c.256-4.645 3.622-8.672 8.8-8.672 4.943 0 8.182 3.665 8.203 8.672H65.183zm35.512-24.417h-6.37V59h6.37V15.364zM108.06 59h6.371V26.273h-6.37V59zm3.218-37.777c2.194 0 4.026-1.705 4.026-3.793s-1.832-3.814-4.026-3.814c-2.216 0-4.027 1.726-4.027 3.814s1.81 3.793 4.027 3.793zm25.795 5.05h-6.711v-7.841h-6.371v7.84h-4.794v5.114h4.794v19.326c-.021 5.944 4.517 8.82 9.545 8.714 2.024-.021 3.388-.405 4.134-.682l-1.15-5.262c-.427.085-1.215.276-2.238.276-2.067 0-3.92-.681-3.92-4.367V31.386h6.711v-5.113zM156.67 59.66c7.137 0 12.187-3.515 13.636-8.842l-6.03-1.086c-1.15 3.089-3.92 4.666-7.542 4.666-5.455 0-9.12-3.537-9.29-9.844h23.266v-2.259c0-11.825-7.072-16.448-14.488-16.448-9.119 0-15.127 6.946-15.127 17.002 0 10.164 5.923 16.811 15.575 16.811zm-9.205-19.879c.256-4.645 3.622-8.672 8.8-8.672 4.943 0 8.181 3.665 8.203 8.672h-17.003z" fill-opacity=".9" />
  <path d="M11.052 66.727V74h.824v-5.526h.07L14.22 74h.796l2.272-5.526h.071V74h.824v-7.273h-1.05l-2.472 6.037h-.086l-2.471-6.037h-1.051zM20.042 74l.732-2.06h2.94l.731 2.06h.924l-2.67-7.273h-.91L19.12 74h.923zm1.009-2.84l1.164-3.282h.057l1.165 3.281H21.05zM26.305 74h.88v-2.358l.91-1.023L30.623 74h1.066l-3.054-3.991 3.054-3.282h-1.15l-3.268 3.608h-.085v-3.608h-.88V74zm6.32 0h4.446v-.781h-3.565v-2.472h3.28v-.781h-3.28v-2.457h3.508v-.782h-4.389V74zm14.245-5c-.27-1.491-1.463-2.372-2.926-2.372-1.861 0-3.21 1.434-3.21 3.736 0 2.3 1.349 3.735 3.21 3.735 1.463 0 2.656-.88 2.926-2.372h-.88c-.214 1.009-1.08 1.549-2.046 1.549-1.321 0-2.358-1.023-2.358-2.912 0-1.89 1.037-2.912 2.358-2.912.966 0 1.832.54 2.045 1.548h.88zm1.22 5h.881v-2.84h1.59c.065 0 .125 0 .186-.004L52.28 74h1.022l-1.644-3.004c.927-.316 1.36-1.073 1.36-2.039 0-1.285-.767-2.23-2.471-2.23H48.09V74zm.881-3.636v-2.855h1.548c1.18 0 1.634.575 1.634 1.448 0 .874-.455 1.407-1.62 1.407h-1.562zM54.282 74h4.446v-.781h-3.565v-2.472h3.281v-.781h-3.28v-2.457h3.508v-.782h-4.39V74zm6.079 0l.731-2.06h2.94l.732 2.06h.923l-2.67-7.273h-.91L59.438 74h.924zm1.008-2.84l1.165-3.282h.057l1.165 3.281h-2.387zm4.005-3.651h2.287V74h.88v-6.491h2.287v-.782h-5.454v.782zm7.499-.782h-.881V74h.88v-7.273zm1.86 0h-.924L76.48 74h.91l2.67-7.273h-.923l-2.16 6.122h-.085l-2.159-6.122zM80.994 74h4.446v-.781h-3.565v-2.472h3.281v-.781h-3.28v-2.457h3.508v-.782h-4.39V74zm14.245-5c-.27-1.491-1.463-2.372-2.926-2.372-1.86 0-3.21 1.434-3.21 3.736 0 2.3 1.35 3.735 3.21 3.735 1.463 0 2.656-.88 2.926-2.372h-.88c-.213 1.009-1.08 1.549-2.046 1.549-1.32 0-2.358-1.023-2.358-2.912 0-1.89 1.037-2.912 2.358-2.912.966 0 1.833.54 2.046 1.548h.88zm7.357 1.364c0-2.302-1.35-3.736-3.21-3.736-1.86 0-3.21 1.434-3.21 3.736 0 2.3 1.35 3.735 3.21 3.735 1.86 0 3.21-1.434 3.21-3.735zm-.852 0c0 1.889-1.037 2.912-2.358 2.912-1.321 0-2.358-1.023-2.358-2.912 0-1.89 1.037-2.912 2.358-2.912 1.32 0 2.358 1.022 2.358 2.912zm7.896-3.637h-.866v5.725h-.071l-3.977-5.725h-.853V74h.881v-5.71h.071L108.79 74h.852v-7.273zm1.164.782h2.287V74h.88v-6.491h2.288v-.782h-5.455v.782zM117.424 74h4.446v-.781h-3.566v-2.472h3.282v-.781h-3.282v-2.457h3.509v-.782h-4.39V74zm11.547-7.273h-.867v5.725h-.071l-3.977-5.725h-.852V74h.88v-5.71h.07L128.12 74h.852v-7.273zm1.163.782h2.287V74h.88v-6.491h2.288v-.782h-5.455v.782zm10.596 1.036h.852c-.04-1.097-1.051-1.917-2.457-1.917-1.392 0-2.486.81-2.486 2.031 0 .98.71 1.563 1.847 1.89l.894.255c.767.213 1.449.483 1.449 1.207 0 .796-.767 1.321-1.775 1.321-.867 0-1.634-.383-1.705-1.207h-.91c.086 1.193 1.052 2.003 2.615 2.003 1.676 0 2.628-.923 2.628-2.102 0-1.364-1.293-1.804-2.046-2.003l-.74-.2c-.538-.141-1.405-.425-1.405-1.207 0-.696.639-1.207 1.605-1.207.88 0 1.549.42 1.634 1.136zM145.543 74h4.446v-.781h-3.565v-2.472h3.28v-.781h-3.28v-2.457h3.508v-.782h-4.39V74zm6.078 0l.732-2.06h2.94l.732 2.06h.923l-2.67-7.273h-.91L150.699 74h.923zm1.009-2.84l1.165-3.282h.056l1.165 3.281h-2.386zm9.232-2.615h.852c-.04-1.097-1.051-1.917-2.457-1.917-1.392 0-2.486.81-2.486 2.031 0 .98.71 1.563 1.846 1.89l.895.255c.767.213 1.449.483 1.449 1.207 0 .796-.767 1.321-1.775 1.321-.867 0-1.634-.383-1.705-1.207h-.91c.086 1.193 1.052 2.003 2.615 2.003 1.676 0 2.627-.923 2.627-2.102 0-1.364-1.292-1.804-2.045-2.003l-.74-.2c-.538-.141-1.405-.425-1.405-1.207 0-.696.639-1.207 1.605-1.207.88 0 1.548.42 1.634 1.136zm1.575-1.818l2.628 4.276V74h.88v-2.997l2.629-4.276h-1.01l-2.016 3.395h-.085l-2.017-3.395h-1.01z" fill-opacity=".8" />
</svg>
