<svg xmlns="http://www.w3.org/2000/svg" viewBox="0 0 180 63" fill="#f8fafc">
  <linearGradient y1="1" x2="1" id="l">
    <stop offset="0%" stop-color="#08A771" />
    <stop offset="100%" stop-color="#11E49D" />
  </linearGradient>
  <linearGradient y1="1" x2="1" id="r">
    <stop offset="0%" stop-color="#13AAAA" />
    <stop offset="100%" stop-color="#04D0D0" />
  </linearGradient>
  <path d="M30.53 27.306l5.11 13.84-11.88 18.52L4 4.306c11.3 0 20.08 6.25 26.53 23z" fill="url(#l)" />
  <path d="M81.72 5.126q-11.33-3.57-19.85 4.18L36 33.666q-16 15.12-21.76-.67l9.52 26.67 57.96-54.54z" fill="url(#r)" />
  <path d="M74.388 59.66c7.138 0 12.187-3.515 13.636-8.842l-6.03-1.086c-1.15 3.089-3.92 4.666-7.542 4.666-5.455 0-9.12-3.537-9.29-9.844h23.267v-2.259c0-11.825-7.074-16.448-14.489-16.448-9.119 0-15.127 6.946-15.127 17.002 0 10.164 5.923 16.811 15.575 16.811zm-9.205-19.879c.256-4.645 3.622-8.672 8.8-8.672 4.943 0 8.182 3.665 8.203 8.672H65.183zm35.512-24.417h-6.37V59h6.37V15.364zM108.06 59h6.371V26.273h-6.37V59zm3.218-37.777c2.194 0 4.026-1.705 4.026-3.793s-1.832-3.814-4.026-3.814c-2.216 0-4.027 1.726-4.027 3.814s1.81 3.793 4.027 3.793zm25.795 5.05h-6.711v-7.841h-6.371v7.84h-4.794v5.114h4.794v19.326c-.021 5.944 4.517 8.82 9.545 8.714 2.024-.021 3.388-.405 4.134-.682l-1.15-5.262c-.427.085-1.215.276-2.238.276-2.067 0-3.92-.681-3.92-4.367V31.386h6.711v-5.113zM156.67 59.66c7.137 0 12.187-3.515 13.636-8.842l-6.03-1.086c-1.15 3.089-3.92 4.666-7.542 4.666-5.455 0-9.12-3.537-9.29-9.844h23.266v-2.259c0-11.825-7.072-16.448-14.488-16.448-9.119 0-15.127 6.946-15.127 17.002 0 10.164 5.923 16.811 15.575 16.811zm-9.205-19.879c.256-4.645 3.622-8.672 8.8-8.672 4.943 0 8.181 3.665 8.203 8.672h-17.003z" fill-opacity=".9" />
</svg>
