<svg xmlns="http://www.w3.org/2000/svg" viewBox="0 0 340 220" fill="#f8fafc">
  <linearGradient x2="1" y2="1" id="a">
    <stop offset="0%" stop-color="#11E49D" />
    <stop offset="82%" stop-color="#09CA89" />
    <stop offset="100%" stop-color="#08A771" />
  </linearGradient>
  <linearGradient y1="1" x2="1" id="b">
    <stop offset="0%" stop-color="#13AAAA" />
    <stop offset="68%" stop-color="#0BC5C5" />
    <stop offset="100%" stop-color="#04D0D0" />
  </linearGradient>
  <path
    d="M21.159 28v1h-2v-1h2zm2 0h2v1h-2v-1zm4 0h2v1h-2v-1zm4 0h2v1h-2v-1zm4 0h2v1h-2v-1zm4 0h2v1h-2v-1zm4 0h2v1h-2v-1zm4 0h2v1h-2v-1zm4 0h2v1h-2v-1zm4 0h2v1h-2v-1zm4 0h2v1h-2v-1zm4 0h2v1h-2v-1zm4 0h2v1h-2v-1zm4 0h2v1h-2v-1zm4 0h2v1h-2v-1zm4 0h2v1h-2v-1zm4 0h2v1h-2v-1zm4 0h2v1h-2v-1zm4 0h2v1h-2v-1zm4 0h2v1h-2v-1zm4 0h2v1h-2v-1zm4 0H105c.052 0 .103 0 .155.002l-.031 1L105 29h-1.841v-1zM15.52 29.409a5 5 0 0 1 1.677-1.073l.36.933q-.757.292-1.34.858l-.697-.718zm91.571-.95a5 5 0 0 1 1.609 1.179l-.74.672q-.548-.602-1.287-.943l.418-.908zM14 33h1q0-.811.316-1.559l-.92-.39A5 5 0 0 0 14 33zm95.72-1.65c.185.53.28 1.088.28 1.65v.317h-1V33q0-.679-.224-1.32l.944-.33zM14 37v-2h1v2h-1zm96-1.683v2h-1v-2h1zM14 41v-2h1v2h-1zm96-1.683v2h-1v-2h1zM14 45v-2h1v2h-1zm96-1.683v2h-1v-2h1zM14 49v-2h1v2h-1zm96-1.683v2h-1v-2h1zM14 53v-2h1v2h-1zm96-1.683v2h-1v-2h1zM14 57v-2h1v2h-1zm96-1.683v2h-1v-2h1zM14 61v-2h1v2h-1zm96-1.683v2h-1v-2h1zM14 65v-2h1v2h-1zm96-1.683v2h-1v-2h1zM14 69v-2h1v2h-1zm96-1.683v2h-1v-2h1zM14 73v-2h1v2h-1zm96-1.683v2h-1v-2h1zM14 77v-2h1v2h-1zm96-1.683v2h-1v-2h1zM14 81v-2h1v2h-1zm96-1.683v2h-1v-2h1zM14 85v-2h1v2h-1zm96-1.683v2h-1v-2h1zM14 89v-2h1v2h-1zm96-1.683v2h-1v-2h1zM14 93v-2h1v2h-1zm96-1.683v2h-1v-2h1zM14 97v-2h1v2h-1zm96-1.683v2h-1v-2h1zM14 101v-2h1v2h-1zm96-1.683v2h-1v-2h1zM14 105v-2h1v2h-1zm96-1.683v2h-1v-2h1zM14 109v-2h1v2h-1zm96-1.683v2h-1v-2h1zM14 113v-2h1v2h-1zm96-1.683v2h-1v-2h1zM14 117v-2h1v2h-1zm96-1.683v2h-1v-2h1zM14 121v-2h1v2h-1zm96-1.683v2h-1v-2h1zM14 125v-2h1v2h-1zm96-1.683v2h-1v-2h1zM14 129v-2h1v2h-1zm96-1.683v2h-1v-2h1zM14 133v-2h1v2h-1zm96-1.683v2h-1v-2h1zM14 137v-2h1v2h-1zm96-1.683v2h-1v-2h1zM14 141v-2h1v2h-1zm96-1.683v2h-1v-2h1zM14 145v-2h1v2h-1zm96-1.683v2h-1v-2h1zM14 149v-2h1v2h-1zm96-1.683v2h-1v-2h1zM14 153v-2h1v2h-1zm96-1.683v2h-1v-2h1zM14 157v-2h1v2h-1zm96-1.683v2h-1v-2h1zM14 161v-2h1v2h-1zm96-1.683v2h-1v-2h1zM14 165v-2h1v2h-1zm96-1.683v2h-1v-2h1zM14 169v-2h1v2h-1zm96-1.683v2h-1v-2h1zM14 173v-2h1v2h-1zm96-1.683v2h-1v-2h1zM14 177v-2h1v2h-1zm96-1.683v2h-1v-2h1zM14 181v-2h1v2h-1zm96-1.683v2h-1v-2h1zM14 185v-2h1v2h-1zm96-1.683v2h-1v-2h1zM14 189v-2h1v2h-1zm96-1.683v2h-1v-2h1zM14 193v-2h1v2h-1zm96-1.683V193c0 .104-.003.207-.01.311l-.998-.062q.008-.125.008-.249v-1.683h1zm-94.907 4.803a5.002 5.002 0 0 1-.909-1.776l.963-.268q.22.784.727 1.42l-.781.624zm36.484-.379h-.847c-.062-.537-.537-.849-1.204-.849-.716 0-1.168.366-1.168.861-.003.556.602.769 1.057.886l.568.148c.739.182 1.673.588 1.673 1.636 0 .986-.787 1.705-2.153 1.705-1.304 0-2.12-.651-2.176-1.705h.88c.052.634.614.935 1.29.935.747 0 1.29-.375 1.29-.943 0-.518-.48-.722-1.102-.887l-.688-.187c-.934-.253-1.514-.728-1.514-1.537 0-1.003.895-1.671 2.063-1.671 1.181 0 2.005.676 2.03 1.608zm57.896-.506a5.003 5.003 0 0 1-1.23 1.571l-.649-.761q.62-.528.984-1.257l.895.447zm-46.413 4.796h-.85v-4.364h.821v.694h.046c.159-.469.596-.759 1.108-.759.108 0 .275.009.36.02v.812a2.066 2.066 0 0 0-.443-.051c-.602 0-1.042.412-1.042.983v2.665zm-6.551-2.162c0 1.35-.804 2.25-2.035 2.25-1.23 0-2.034-.9-2.034-2.25 0-1.358.804-2.258 2.034-2.258 1.23 0 2.035.9 2.035 2.258zm12.247.781c-.094.85-.762 1.469-1.793 1.469-1.267 0-2.034-.935-2.034-2.25 0-1.332.795-2.258 2.026-2.258.991 0 1.71.585 1.8 1.465h-.826c-.09-.409-.42-.75-.96-.75-.71 0-1.182.589-1.182 1.523 0 .952.463 1.551 1.182 1.551.486 0 .852-.278.96-.75h.827zm4.61.29c-.193.71-.866 1.179-1.818 1.179-1.287 0-2.076-.886-2.076-2.241 0-1.341.8-2.267 2.017-2.267.988 0 1.932.616 1.932 2.193v.301h-3.103c.023.841.512 1.312 1.239 1.312.483 0 .852-.21 1.006-.622l.804.145zm2.62-3.329c.943 0 1.474.443 1.65 1.122l-.77.136c-.099-.293-.343-.585-.872-.585-.483 0-.846.238-.843.574-.003.295.204.457.684.571l.693.159c.802.184 1.194.565 1.194 1.182 0 .789-.73 1.349-1.784 1.349-.98 0-1.623-.435-1.765-1.207l.821-.125c.103.429.43.647.938.647.557 0 .917-.264.917-.602 0-.273-.196-.46-.616-.554l-.739-.162c-.818-.182-1.193-.594-1.193-1.213 0-.773.699-1.292 1.685-1.292zm-16.793 3.704c.478 0 1.029-.352 1.026-1.094v-2.554h.852v4.364h-.835v-.756h-.046c-.201.466-.647.813-1.304.813-.838 0-1.431-.563-1.431-1.645v-2.776h.849v2.674c0 .593.364.974.89.974zm12.301-3.003c-.69 0-1.139.537-1.173 1.157h2.267c-.003-.668-.435-1.157-1.094-1.157zm-18.196 1.554c0 .838.375 1.54 1.18 1.54.798 0 1.173-.702 1.173-1.54 0-.835-.375-1.545-1.174-1.545-.804 0-1.179.71-1.179 1.545zm-34.766.112a5.002 5.002 0 0 1-1.908-.579l.475-.88q.716.387 1.526.463l-.093.996zm87.965-.207c-.484.152-.99.229-1.497.229h-.476v-1H105q.613 0 1.198-.184l.3.955zM22.524 198h-2v-1h2v1zm4 0h-2v-1h2v1zm4 0h-2v-1h2v1zm4 0h-2v-1h2v1zm4 0h-2v-1h2v1zm48 0h-2v-1h2v1zm4 0h-2v-1h2v1zm4 0h-2v-1h2v1zm4 0h-2v-1h2v1zm4 0h-2v-1h2v1z"
    fill-opacity=".3"
  />
  <path
    d="M63.013 61.968c.48-.004.953-.029 1.426-.094a11.803 11.803 0 0 0 3.146-.863 12.403 12.403 0 0 0 3.793-2.542 11.791 11.791 0 0 0 3.46-6.903c.15-1.16.135-2.346-.045-3.499A11.958 11.958 0 0 0 74 45.28a11.194 11.194 0 0 0-.854-1.617c-1.168-1.837-2.86-3.314-4.81-4.3a12.834 12.834 0 0 0-2.172-.87h-.005c.12.063.24.132.345.201.12.074.24.146.351.225a8.929 8.929 0 0 1 1.56 1.33c1.062 1.145 1.796 2.548 2.217 4.041.284.982.434 1.998.495 3.017.044.743.044 1.491-.047 2.23-.149 1.27-.554 2.51-1.228 3.595a7.474 7.474 0 0 1-1.903 2.084c-1.244.928-2.877 1.482-4.436 1.114a3.917 3.917 0 0 1-.748-.258 4.697 4.697 0 0 1-.779-.45 6.081 6.081 0 0 1-1.244-1.105 6.507 6.507 0 0 1-1.049-1.747 7.366 7.366 0 0 1-.494-2.54c-.03-1.273.225-2.553.854-3.67a6.431 6.431 0 0 1 1.663-1.918c.225-.178.464-.333.704-.479l.016-.007a5.12 5.12 0 0 0-1.44-.12c-.418.028-.831.109-1.229.24a5.705 5.705 0 0 0-1.752.944c-.21.18-.42.36-.615.555-1.123 1.153-1.768 2.682-2.022 4.256-.15.973-.15 1.96-.09 2.95.104 1.395.39 2.787.944 4.062a8.52 8.52 0 0 0 1.348 2.173 8.14 8.14 0 0 0 3.132 2.23 7.936 7.936 0 0 0 2.113.54c.074.015.15.015.21.015l-.022-.032zm-2.934-.398a4.095 4.095 0 0 1-.45-.228 8.5 8.5 0 0 1-2.038-1.534c-1.094-1.137-1.827-2.566-2.247-4.08a15.183 15.183 0 0 1-.495-3.172 12.14 12.14 0 0 1 .046-2.082c.135-1.257.495-2.5 1.124-3.58a6.889 6.889 0 0 1 1.783-2.053 6.23 6.23 0 0 1 1.633-.9 5.363 5.363 0 0 1 3.522-.045c.03 0 .03 0 .045.03.015.015.045.015.06.03.045.016.104.045.165.074.24.12.48.271.704.42a6.293 6.293 0 0 1 2.097 2.502c.42.914.615 1.934.631 2.938.014 1.08-.18 2.157-.645 3.146a6.42 6.42 0 0 1-2.638 2.832c.09.03.18.045.271.075.225.044.45.074.688.074 1.468.045 2.892-.66 3.94-1.647.195-.18.375-.375.54-.585.225-.27.435-.54.614-.823.24-.375.435-.75.614-1.154.23-.535.4-1.092.51-1.664.195-1.004.21-2.022.148-3.026-.135-2.022-.673-4.045-1.842-5.724a9.02 9.02 0 0 0-.555-.719 9.856 9.856 0 0 0-1.063-1.034 8.473 8.473 0 0 0-1.363-.915 9.924 9.924 0 0 0-1.692-.598l-.3-.06c-.209-.03-.42-.044-.634-.06a8.453 8.453 0 0 0-1.015.016c-.704.045-1.412.16-2.112.337-3.356.866-6.292 3.205-7.855 6.31a11.834 11.834 0 0 0-1.062 3.13 11.81 11.81 0 0 0-.104 3.775c.12 1.02.374 2.023.778 2.977.227.57.511 1.124.825 1.648 1.094 1.783 2.683 3.236 4.51 4.24.688.39 1.408.69 2.157.944.226.074.45.15.69.21l.015-.025z"
  />
  <path
    d="M55.03 66.182v4.125c-.003.67-.315 1.029-.872 1.029-.514 0-.872-.307-.875-.79h-.872c0 .983.738 1.534 1.724 1.534 1.068 0 1.767-.654 1.77-1.773v-4.125h-.875zm5.327 1.529h.846c-.025-.932-.85-1.608-2.031-1.608-1.168 0-2.062.667-2.062 1.67 0 .81.58 1.284 1.514 1.537l.687.187c.622.165 1.103.37 1.103.887 0 .568-.543.943-1.29.943-.676 0-1.239-.301-1.29-.935h-.88c.056 1.054.871 1.705 2.175 1.705 1.367 0 2.154-.719 2.154-1.705 0-1.048-.935-1.454-1.673-1.636l-.569-.148c-.454-.116-1.06-.33-1.056-.886 0-.494.451-.86 1.167-.86.668 0 1.142.312 1.205.849zm7.028 1.38c0-1.86-1.114-2.988-2.62-2.988-1.51 0-2.621 1.127-2.621 2.988 0 1.858 1.11 2.989 2.622 2.989 1.505 0 2.62-1.128 2.62-2.989zm-.87 0c0 1.418-.75 2.188-1.75 2.188-1.002 0-1.75-.77-1.75-2.188 0-1.417.748-2.187 1.75-2.187 1 0 1.75.77 1.75 2.187zm6.657-2.909h-.87v4.273h-.053l-2.96-4.273h-.813V72h.878v-4.267h.054L72.365 72h.807v-5.818z"
  />
  <path d="M61.618 86.63h.764v-1.54h1.54v-.763h-1.54V82.79h-.764v1.537H60.08v.764h1.537v1.54z" />
  <path
    d="M79.187 118H45.81A2.811 2.811 0 0 1 43 115.189V96.81A2.811 2.811 0 0 1 45.811 94h33.376a2.811 2.811 0 0 1 2.811 2.811v18.375a2.811 2.811 0 0 1-2.811 2.812V118zm-26.813-5.626v-7.312l3.75 4.688 3.75-4.688v7.313h3.75V99.626h-3.75l-3.75 4.688-3.75-4.688h-3.752v12.75l3.752-.002zM77.5 106h-3.752v-6.375H70V106h-3.75l5.623 6.563L77.5 106z"
  />
  <path
    d="M56.662 122.182V128h.835v-4.213h.054l1.716 4.204h.693l1.716-4.201h.054V128h.835v-5.818H61.5l-1.852 4.523h-.068l-1.853-4.523h-1.065zM65.727 128c1.773 0 2.799-1.1 2.799-2.918 0-1.81-1.026-2.9-2.74-2.9h-1.942V128h1.883zm-1.005-.767v-4.284h1.011c1.273 0 1.929.761 1.929 2.133 0 1.378-.656 2.151-1.983 2.151h-.957z"
  />
  <path d="M61.618 142.63h.764v-1.54h1.54v-.763h-1.54v-1.537h-.764v1.537H60.08v.764h1.537v1.54z" />
  <path
    d="M50 150.001l4.111 6.453v4.09h2.638v-4.09L61.053 150h-2.839l-2.634 4.156L52.965 150l-2.965.001zm12.093.024l-4.47 10.544h2.114l.97-2.345h4.775l.804 2.345h2.26l-4.291-10.544h-2.162zm1.133 2.225l1.463 3.87h-3.096l1.633-3.87zm3.06 9.475v10.29H74v-2.199h-5.454v-8.091h-2.26zm-12.175.002v10.335h2.217v-7.129l2.32 4.792h1.746l2.4-4.96v7.295h2.127v-10.333h-2.904l-2.577 4.674-2.455-4.674h-2.874z"
  />
  <path
    d="M51.1 177.213l2.11 3.534v2.284h.875v-2.284l2.111-3.534h-.997l-1.52 2.645h-.063l-1.52-2.645H51.1zm5.826 5.818l.534-1.54h2.273l.531 1.54h.932l-2.094-5.818h-1.014l-2.094 5.818h.932zm.79-2.278l.858-2.483h.045l.858 2.483h-1.761zm4.318-3.54v5.818h.835v-4.213h.054l1.716 4.204h.693l1.716-4.201h.054v4.21h.835v-5.818h-1.065l-1.852 4.523h-.068l-1.853-4.523h-1.065zm7.182 5.818h3.514v-.756h-2.636v-5.062h-.878v5.818z"
  />
  <path
    d="M237.159 28v1h-2v-1h2zm2 0h2v1h-2v-1zm4 0h2v1h-2v-1zm4 0h2v1h-2v-1zm4 0h2v1h-2v-1zm4 0h2v1h-2v-1zm4 0h2v1h-2v-1zm4 0h2v1h-2v-1zm4 0h2v1h-2v-1zm4 0h2v1h-2v-1zm4 0h2v1h-2v-1zm4 0h2v1h-2v-1zm4 0h2v1h-2v-1zm4 0h2v1h-2v-1zm4 0h2v1h-2v-1zm4 0h2v1h-2v-1zm4 0h2v1h-2v-1zm4 0h2v1h-2v-1zm4 0h2v1h-2v-1zm4 0h2v1h-2v-1zm4 0h2v1h-2v-1zm4 0H321c.052 0 .103 0 .154.002l-.03 1L321 29h-1.841v-1zm-87.638 1.409a5 5 0 0 1 1.677-1.073l.36.933q-.757.292-1.34.858l-.697-.718zm91.571-.95a5 5 0 0 1 1.609 1.179l-.74.672q-.548-.602-1.287-.943l.418-.908zM230 33h1q0-.811.316-1.559l-.92-.39A5 5 0 0 0 230 33zm95.72-1.65c.185.53.28 1.088.28 1.65v.317h-1V33q0-.679-.224-1.32l.944-.33zM230 37v-2h1v2h-1zm96-1.683v2h-1v-2h1zM230 41v-2h1v2h-1zm96-1.683v2h-1v-2h1zM230 45v-2h1v2h-1zm96-1.683v2h-1v-2h1zM230 49v-2h1v2h-1zm96-1.683v2h-1v-2h1zM230 53v-2h1v2h-1zm96-1.683v2h-1v-2h1zM230 57v-2h1v2h-1zm96-1.683v2h-1v-2h1zM230 61v-2h1v2h-1zm96-1.683v2h-1v-2h1zM230 65v-2h1v2h-1zm96-1.683v2h-1v-2h1zM230 69v-2h1v2h-1zm96-1.683v2h-1v-2h1zM230 73v-2h1v2h-1zm96-1.683v2h-1v-2h1zM230 77v-2h1v2h-1zm96-1.683v2h-1v-2h1zM230 81v-2h1v2h-1zm96-1.683v2h-1v-2h1zM230 85v-2h1v2h-1zm96-1.683v2h-1v-2h1zM230 89v-2h1v2h-1zm96-1.683v2h-1v-2h1zM230 93v-2h1v2h-1zm96-1.683v2h-1v-2h1zM230 97v-2h1v2h-1zm96-1.683v2h-1v-2h1zM230 101v-2h1v2h-1zm96-1.683v2h-1v-2h1zM230 105v-2h1v2h-1zm96-1.683v2h-1v-2h1zM230 109v-2h1v2h-1zm96-1.683v2h-1v-2h1zM230 113v-2h1v2h-1zm96-1.683v2h-1v-2h1zM230 117v-2h1v2h-1zm96-1.683v2h-1v-2h1zM230 121v-2h1v2h-1zm96-1.683v2h-1v-2h1zM230 125v-2h1v2h-1zm96-1.683v2h-1v-2h1zM230 129v-2h1v2h-1zm96-1.683v2h-1v-2h1zM230 133v-2h1v2h-1zm96-1.683v2h-1v-2h1zM230 137v-2h1v2h-1zm96-1.683v2h-1v-2h1zM230 141v-2h1v2h-1zm96-1.683v2h-1v-2h1zM230 145v-2h1v2h-1zm96-1.683v2h-1v-2h1zM230 149v-2h1v2h-1zm96-1.683v2h-1v-2h1zM230 153v-2h1v2h-1zm96-1.683v2h-1v-2h1zM230 157v-2h1v2h-1zm96-1.683v2h-1v-2h1zM230 161v-2h1v2h-1zm96-1.683v2h-1v-2h1zM230 165v-2h1v2h-1zm96-1.683v2h-1v-2h1zM230 169v-2h1v2h-1zm96-1.683v2h-1v-2h1zM230 173v-2h1v2h-1zm96-1.683v2h-1v-2h1zM230 177v-2h1v2h-1zm96-1.683v2h-1v-2h1zM230 181v-2h1v2h-1zm96-1.683v2h-1v-2h1zM230 185v-2h1v2h-1zm96-1.683v2h-1v-2h1zM230 189v-2h1v2h-1zm96-1.683v2h-1v-2h1zM230 193v-2h1v2h-1zm96-1.683V193c0 .104-.003.207-.01.311l-.998-.062q.008-.125.008-.249v-1.683h1zm-94.907 4.803a5.002 5.002 0 0 1-.909-1.776l.963-.268q.22.784.727 1.42l-.781.624zm37.21-1.987c1.505 0 2.619 1.128 2.619 2.989s-1.114 2.989-2.62 2.989c-1.51 0-2.622-1.131-2.622-2.989 0-1.861 1.111-2.989 2.623-2.989zm9.54 1.534h.894v.682h-.895v2.401c0 .491.248.582.523.582.136 0 .241-.025.298-.037l.154.702c-.1.037-.281.088-.551.091-.67.014-1.276-.369-1.273-1.162v-2.577h-.64v-.682h.64v-1.045h.85v1.045zm12.667 0h.895v.682h-.895v2.401c0 .491.247.582.523.582.136 0 .241-.025.298-.037l.153.702c-.1.037-.28.088-.55.091-.671.014-1.276-.369-1.274-1.162v-2.577h-.639v-.682h.64v-1.045h.849v1.045zm34.963-.432a5.003 5.003 0 0 1-1.23 1.571l-.649-.761q.62-.528.984-1.257l.895.447zm-57.17 4.074c1 0 1.75-.769 1.75-2.187 0-1.418-.75-2.188-1.75-2.188-1.003 0-1.75.77-1.75 2.188 0 1.418.747 2.187 1.75 2.187zm12.221 2.358h-.85v-6h.83v.708h.071c.15-.27.444-.764 1.253-.764 1.054 0 1.833.832 1.833 2.247 0 1.412-.767 2.258-1.824 2.258-.796 0-1.108-.486-1.262-.764h-.05v2.315zm-6.84-2.352c.476 0 1.028-.352 1.025-1.094v-2.554h.852v4.364h-.835v-.756h-.046c-.201.466-.647.813-1.304.813-.838 0-1.431-.563-1.431-1.645v-2.776h.849v2.674c0 .593.364.974.89.974zm12.667 0c.477 0 1.028-.352 1.025-1.094v-2.554h.853v4.364h-.835v-.756h-.046c-.202.466-.648.813-1.304.813-.838 0-1.432-.563-1.432-1.645v-2.776h.85v2.674c0 .593.363.974.889.974zm-4.705-2.983c-.741 0-1.139.605-1.139 1.517 0 .918.41 1.543 1.14 1.543.758 0 1.156-.668 1.156-1.543 0-.866-.387-1.517-1.157-1.517zm-47.115 1.646a5.002 5.002 0 0 1-1.907-.579l.475-.88q.716.387 1.526.463l-.094.996zm87.966-.207c-.484.152-.99.229-1.497.229h-.476v-1H321q.613 0 1.198-.184l.3.955zm-83.973.229h-2v-1h2v1zm4 0h-2v-1h2v1zm4 0h-2v-1h2v1zm4 0h-2v-1h2v1zm4 0h-2v-1h2v1zm48 0h-2v-1h2v1zm4 0h-2v-1h2v1zm4 0h-2v-1h2v1zm4 0h-2v-1h2v1zm4 0h-2v-1h2v1z"
    fill-opacity=".3"
  />
  <path
    d="M278.013 61.968c.48-.004.953-.029 1.426-.094a11.803 11.803 0 0 0 3.146-.863 12.403 12.403 0 0 0 3.793-2.542 11.791 11.791 0 0 0 3.46-6.903c.15-1.16.135-2.346-.045-3.499A11.958 11.958 0 0 0 289 45.28a11.194 11.194 0 0 0-.854-1.617c-1.168-1.837-2.86-3.314-4.81-4.3a12.834 12.834 0 0 0-2.172-.87h-.005c.12.063.24.132.345.201.12.074.24.146.351.225a8.929 8.929 0 0 1 1.56 1.33c1.062 1.145 1.796 2.548 2.217 4.041.284.982.434 1.998.495 3.017.044.743.044 1.491-.047 2.23-.149 1.27-.554 2.51-1.228 3.595a7.474 7.474 0 0 1-1.903 2.084c-1.244.928-2.877 1.482-4.436 1.114a3.917 3.917 0 0 1-.748-.258 4.697 4.697 0 0 1-.779-.45 6.081 6.081 0 0 1-1.244-1.105 6.507 6.507 0 0 1-1.049-1.747 7.366 7.366 0 0 1-.494-2.54c-.03-1.273.225-2.553.854-3.67a6.431 6.431 0 0 1 1.663-1.918c.225-.178.464-.333.704-.479l.016-.007a5.12 5.12 0 0 0-1.44-.12c-.418.028-.831.109-1.229.24a5.705 5.705 0 0 0-1.752.944c-.21.18-.42.36-.615.555-1.123 1.153-1.768 2.682-2.022 4.256-.15.973-.15 1.96-.09 2.95.104 1.395.39 2.787.944 4.062a8.52 8.52 0 0 0 1.348 2.173 8.14 8.14 0 0 0 3.132 2.23 7.936 7.936 0 0 0 2.113.54c.074.015.15.015.21.015l-.022-.032zm-2.934-.398a4.095 4.095 0 0 1-.45-.228 8.5 8.5 0 0 1-2.038-1.534c-1.094-1.137-1.827-2.566-2.247-4.08a15.183 15.183 0 0 1-.495-3.172 12.14 12.14 0 0 1 .046-2.082c.135-1.257.495-2.5 1.124-3.58a6.889 6.889 0 0 1 1.783-2.053 6.23 6.23 0 0 1 1.633-.9 5.363 5.363 0 0 1 3.522-.045c.03 0 .03 0 .045.03.015.015.045.015.06.03.045.016.104.045.165.074.24.12.48.271.704.42a6.293 6.293 0 0 1 2.097 2.502c.42.914.615 1.934.631 2.938.014 1.08-.18 2.157-.645 3.146a6.42 6.42 0 0 1-2.638 2.832c.09.03.18.045.271.075.225.044.45.074.688.074 1.468.045 2.892-.66 3.94-1.647.195-.18.375-.375.54-.585.225-.27.435-.54.614-.823.24-.375.435-.75.614-1.154.23-.535.4-1.092.51-1.664.195-1.004.21-2.022.148-3.026-.135-2.022-.673-4.045-1.842-5.724a9.02 9.02 0 0 0-.555-.719 9.856 9.856 0 0 0-1.063-1.034 8.473 8.473 0 0 0-1.363-.915 9.924 9.924 0 0 0-1.692-.598l-.3-.06c-.209-.03-.42-.044-.634-.06a8.453 8.453 0 0 0-1.015.016c-.704.045-1.412.16-2.112.337-3.356.866-6.292 3.205-7.855 6.31a11.834 11.834 0 0 0-1.062 3.13 11.81 11.81 0 0 0-.104 3.775c.12 1.02.374 2.023.778 2.977.227.57.511 1.124.825 1.648 1.094 1.783 2.683 3.236 4.51 4.24.688.39 1.408.69 2.157.944.226.074.45.15.69.21l.015-.025z"
  />
  <path
    d="M271.566 72c1.772 0 2.798-1.1 2.798-2.917 0-1.81-1.026-2.9-2.739-2.9h-1.943V72h1.884zm-1.006-.767V66.95h1.011c1.273 0 1.93.762 1.93 2.134 0 1.378-.657 2.15-1.984 2.15h-.957zm6.096.864c.722 0 1.128-.367 1.29-.693h.034V72h.83v-2.897c0-1.27-1-1.523-1.693-1.523-.79 0-1.517.318-1.801 1.113l.798.182c.125-.31.443-.608 1.014-.608.548 0 .83.287.83.782v.02c0 .31-.319.303-1.103.394-.826.097-1.673.313-1.673 1.304 0 .858.645 1.33 1.474 1.33zm.185-.682c-.48 0-.827-.216-.827-.636 0-.455.404-.617.895-.682.276-.037.93-.11 1.051-.233v.562c0 .517-.412.99-1.119.99zm5.136-3.778h-.894V66.59h-.85v1.046h-.64v.681h.64v2.577c-.003.793.602 1.176 1.273 1.162.27-.003.452-.054.55-.09l-.152-.702c-.057.01-.162.036-.299.036-.275 0-.522-.09-.522-.582v-2.4h.894v-.682zm2.208 4.46c.721 0 1.128-.367 1.29-.693h.034V72h.83v-2.897c0-1.27-1-1.523-1.694-1.523-.79 0-1.517.318-1.801 1.113l.798.182c.125-.31.443-.608 1.014-.608.549 0 .83.287.83.782v.02c0 .31-.318.303-1.102.394-.827.097-1.674.313-1.674 1.304 0 .858.645 1.33 1.475 1.33zm.184-.682c-.48 0-.826-.216-.826-.636 0-.455.403-.617.895-.682.275-.037.929-.11 1.05-.233v.562c0 .517-.411.99-1.119.99z"
  />
  <path d="M277.618 86.63h.764v-1.54h1.54v-.763h-1.54V82.79h-.764v1.537h-1.537v.764h1.537v1.54z" />
  <path
    d="M290 118h-24V94h24v24zm-22.4-1.6h20.8V95.6h-20.8v20.8zm16-1.6H282a3.21 3.21 0 0 1-3.2-3.2h1.6c0 .96.64 1.6 1.6 1.6h1.6c.96 0 1.6-.64 1.6-1.6 0-.96-.64-1.6-1.6-1.6H282a3.21 3.21 0 0 1-3.2-3.2c0-1.76 1.44-3.2 3.2-3.2h1.92c1.6 0 2.88 1.28 2.88 2.88v.32h-1.6v-.32c0-.64-.64-1.28-1.28-1.28H282c-.96 0-1.6.64-1.6 1.6 0 .96.64 1.6 1.6 1.6h1.6c1.76 0 3.2 1.44 3.2 3.2 0 1.76-1.44 3.2-3.2 3.2zm-8 0H274v-9.6h-3.2v-1.6h8v1.6h-3.2v9.6z"
  />
  <path
    d="M272.581 128c1.773 0 2.798-1.1 2.798-2.917 0-1.81-1.025-2.9-2.738-2.9h-1.944V128h1.884zm-1.006-.767v-4.284h1.012c1.272 0 1.929.762 1.929 2.134 0 1.378-.657 2.15-1.983 2.15h-.958zm4.364-4.295h1.812V128h.875v-5.062h1.816v-.756h-4.503v.756zm8.668.773h.846c-.025-.932-.85-1.608-2.031-1.608-1.168 0-2.063.667-2.063 1.67 0 .81.58 1.284 1.515 1.537l.687.187c.622.165 1.102.37 1.102.887 0 .568-.542.943-1.29.943-.676 0-1.238-.301-1.29-.935h-.88c.057 1.054.872 1.705 2.176 1.705 1.367 0 2.154-.719 2.154-1.705 0-1.048-.935-1.454-1.674-1.636l-.568-.148c-.454-.116-1.06-.33-1.057-.886 0-.494.452-.86 1.168-.86.668 0 1.142.312 1.205.849z"
  />
  <path d="M277.618 142.63h.764v-1.54h1.54v-.763h-1.54v-1.537h-.764v1.537h-1.537v.764h1.537v1.54z" />
  <path
    d="M266 150h24v24h-24v-24zm22.034 18.276c-.175-1.095-.888-2.015-3.003-2.873-.736-.345-1.554-.585-1.797-1.14-.091-.33-.105-.51-.046-.705.15-.646.915-.84 1.515-.66.39.12.75.42.976.9 1.034-.676 1.034-.676 1.755-1.125-.27-.42-.404-.601-.586-.78-.63-.705-1.469-1.065-2.834-1.034l-.705.089c-.676.165-1.32.525-1.71 1.005-1.14 1.291-.811 3.541.569 4.471 1.365 1.02 3.361 1.244 3.616 2.205.24 1.17-.87 1.545-1.966 1.41-.811-.18-1.26-.586-1.755-1.336l-1.83 1.051c.21.48.45.689.81 1.109 1.74 1.756 6.09 1.666 6.871-1.004.029-.09.24-.705.074-1.65l.046.067zm-8.983-7.245h-2.248c0 1.938-.009 3.864-.009 5.805 0 1.232.063 2.363-.138 2.711-.33.689-1.18.601-1.566.48-.396-.196-.597-.466-.83-.855-.063-.105-.11-.196-.127-.196l-1.825 1.125c.305.63.75 1.172 1.324 1.517.855.51 2.004.675 3.207.405.783-.226 1.458-.691 1.811-1.411.51-.93.402-2.07.397-3.346.012-2.054 0-4.109 0-6.179l.004-.056z"
  />
  <path
    d="M268.48 184h3.682v-.756h-2.804v-1.78h2.58v-.754h-2.58v-1.773h2.77v-.755h-3.648V184zm5.605-2.59c0-.697.426-1.095 1.017-1.095.577 0 .926.378.926 1.012V184h.85v-2.776c0-1.08-.594-1.644-1.486-1.644-.656 0-1.085.304-1.287.767h-.054v-.71h-.815V184h.85v-2.59zm5.966-1.774h-.895v-1.045h-.85v1.045h-.638v.682h.639v2.577c-.003.792.602 1.176 1.272 1.162.27-.003.452-.054.552-.091l-.154-.702c-.057.012-.162.037-.298.037-.276 0-.523-.09-.523-.582v-2.4h.895v-.683zm.938 4.364h.85v-2.665c0-.57.44-.983 1.042-.983.176 0 .375.032.443.051v-.812a3.453 3.453 0 0 0-.36-.02c-.512 0-.95.29-1.109.759h-.045v-.694h-.821V184zm3.747 1.636c.701 0 1.145-.366 1.397-1.054l1.799-4.946h-.912l-1.105 3.387h-.046l-1.105-3.387h-.909l1.597 4.42-.105.29c-.216.58-.52.628-.986.5l-.205.697c.102.045.324.093.58.093z"
  />
  <path d="M167.337 103.56l2.761 7.459-6.42 9.981L153 91.165c6.107 0 10.851 3.368 14.337 12.395z" fill="url(#a)" />
  <path d="M195 91.607q-6.123-1.924-10.727 2.252l-13.98 13.129q-8.647 8.148-11.76-.361L163.679 121 195 91.607z" fill="url(#b)" />
  <path
    d="M74.94 49.75H122q.932 0 1.591.66.659.658.659 1.59v52q0 .725.513 1.237.512.513 1.237.513h27v.5h-27q-.932 0-1.591-.659-.659-.659-.659-1.591V52q0-.725-.513-1.237-.512-.513-1.237-.513H74.94v-.5zm78.237 56.427l-1.591 1.59q-.035.036-.081.055-.046.019-.096.019t-.096-.019q-.046-.019-.08-.054-.036-.035-.055-.081-.019-.046-.019-.096t.019-.096q.02-.046.054-.08l1.591-1.592q.035-.035.081-.054.046-.019.096-.019t.096.02q.046.018.08.053.036.035.055.081.019.046.019.096t-.02.096q-.018.046-.053.08zm-.354 0l-1.59-1.591q-.036-.035-.055-.081-.019-.046-.019-.096t.019-.096q.02-.046.054-.08.035-.036.081-.055.046-.019.096-.019t.096.02q.046.018.08.053l1.592 1.591q.035.035.054.081.019.046.019.096t-.02.096q-.018.046-.053.08-.035.036-.081.055-.046.019-.096.019t-.096-.019q-.046-.019-.08-.054z"
  />
  <path
    d="M81.998 105.75H153v.5H81.998v-.5zm71.179.427l-1.591 1.59q-.035.036-.081.055-.046.019-.096.019t-.096-.019q-.046-.02-.08-.054-.036-.035-.055-.081-.019-.046-.019-.096t.02-.096q.018-.046.053-.08l1.591-1.592q.035-.035.081-.054.046-.019.096-.019t.096.019q.046.02.08.054.036.035.055.081.019.046.019.096t-.019.096q-.019.046-.054.08zm-.354 0l-1.59-1.591q-.036-.035-.055-.081-.019-.046-.019-.096t.02-.096q.018-.046.053-.08.035-.036.081-.055.046-.019.096-.019t.096.019q.046.02.08.054l1.592 1.591q.035.035.054.081.019.046.019.096t-.019.096q-.019.046-.054.08-.035.036-.081.055-.046.019-.096.019t-.096-.019q-.046-.02-.08-.054z"
  />
  <path
    d="M74 160.781h48q.725 0 1.237-.513.513-.512.513-1.237V108q0-.932.659-1.591.659-.659 1.591-.659h27v.5h-27q-.725 0-1.237.513-.513.512-.513 1.237v51.031q0 .932-.659 1.591-.659.659-1.591.659H74v-.5zm79.177-54.604l-1.591 1.59q-.035.036-.081.055-.046.019-.096.019t-.096-.019q-.046-.02-.08-.054-.036-.035-.055-.081-.019-.046-.019-.096t.019-.096q.02-.046.054-.08l1.591-1.592q.035-.035.081-.054.046-.019.096-.019t.096.019q.046.02.08.054.036.035.055.081.019.046.019.096t-.02.096q-.018.046-.053.08zm-.354 0l-1.59-1.591q-.036-.035-.055-.081-.019-.046-.019-.096t.019-.096q.02-.046.054-.08.035-.036.081-.055.046-.019.096-.019t.096.019q.046.02.08.054l1.592 1.591q.035.035.054.081.019.046.019.096t-.02.096q-.018.046-.053.08-.035.036-.081.055-.046.019-.096.019t-.096-.019q-.046-.02-.08-.054z"
  />
  <path
    d="M187 105.75h27q.725 0 1.237-.513.513-.512.513-1.237V52q0-.932.659-1.59.659-.66 1.591-.66h48v.5h-48q-.725 0-1.237.513-.513.512-.513 1.237v52q0 .932-.659 1.591-.659.659-1.591.659h-27v-.5zm79.177-55.573l-1.591 1.59q-.035.036-.081.055-.046.02-.096.02t-.096-.02q-.046-.019-.08-.054-.036-.035-.055-.081-.019-.046-.019-.096t.019-.096q.02-.045.054-.08l1.591-1.592q.035-.035.081-.054.046-.019.096-.019t.096.02q.046.018.08.053.036.036.055.081.019.046.019.096t-.02.096q-.018.046-.053.08zm-.354 0l-1.59-1.591q-.036-.035-.055-.081-.019-.046-.019-.096t.019-.096q.02-.045.054-.08.035-.036.081-.055.046-.019.096-.019t.096.02q.046.018.08.053l1.592 1.591q.035.036.054.081.019.046.019.096t-.02.096q-.018.046-.053.08-.035.036-.081.055-.046.02-.096.02t-.096-.02q-.046-.019-.08-.054z"
  />
  <path
    d="M187 105.75h79v.5h-79v-.5zm79.177.427l-1.591 1.59q-.035.036-.081.055-.046.019-.096.019t-.096-.019q-.046-.02-.08-.054-.036-.035-.055-.081-.019-.046-.019-.096t.019-.096q.02-.046.054-.08l1.591-1.592q.035-.035.081-.054.046-.019.096-.019t.096.019q.046.02.08.054.036.035.055.081.019.046.019.096t-.02.096q-.018.046-.053.08zm-.354 0l-1.59-1.591q-.036-.035-.055-.081-.019-.046-.019-.096t.019-.096q.02-.046.054-.08.035-.036.081-.055.046-.019.096-.019t.096.019q.046.02.08.054l1.592 1.591q.035.035.054.081.019.046.019.096t-.02.096q-.018.046-.053.08-.035.036-.081.055-.046.019-.096.019t-.096-.019q-.046-.02-.08-.054z"
  />
  <path
    d="M187 105.75h27q.932 0 1.591.659.659.659.659 1.591v52q0 .725.513 1.237.512.513 1.237.513h48v.5h-48q-.932 0-1.591-.659-.659-.659-.659-1.591v-52q0-.725-.513-1.237-.512-.513-1.237-.513h-27v-.5zm79.177 56.427l-1.591 1.59q-.035.036-.081.055-.046.019-.096.019t-.096-.02q-.046-.018-.08-.053-.036-.035-.055-.081-.019-.046-.019-.096t.019-.096q.02-.046.054-.08l1.591-1.592q.035-.035.081-.054.046-.019.096-.019t.096.019q.046.02.08.054.036.035.055.081.019.046.019.096t-.02.096q-.018.046-.053.08zm-.354 0l-1.59-1.591q-.036-.035-.055-.081-.019-.046-.019-.096t.019-.096q.02-.046.054-.08.035-.036.081-.055.046-.019.096-.019t.096.019q.046.02.08.054l1.592 1.591q.035.035.054.081.019.046.019.096t-.02.096q-.018.046-.053.08-.035.036-.081.055-.046.019-.096.019t-.096-.019q-.046-.02-.08-.054z"
  />
</svg>
